<svg width="259" height="57" viewBox="0 0 259 57" fill="none" xmlns="http://www.w3.org/2000/svg">
<path d="M56.962 37.288H47.006L45.41 42H38.608L48.26 15.324H55.784L65.436 42H58.558L56.962 37.288ZM55.29 32.272L51.984 22.506L48.716 32.272H55.29ZM74.8716 23.798C75.5049 22.81 76.3789 22.012 77.4936 21.404C78.6082 20.796 79.9129 20.492 81.4076 20.492C83.1556 20.492 84.7389 20.9353 86.1576 21.822C87.5762 22.7087 88.6909 23.9753 89.5016 25.622C90.3376 27.2687 90.7556 29.1813 90.7556 31.36C90.7556 33.5387 90.3376 35.464 89.5016 37.136C88.6909 38.7827 87.5762 40.062 86.1576 40.974C84.7389 41.8607 83.1556 42.304 81.4076 42.304C79.9382 42.304 78.6336 42 77.4936 41.392C76.3789 40.784 75.5049 39.9987 74.8716 39.036V52.108H68.3736V20.796H74.8716V23.798ZM84.1436 31.36C84.1436 29.7387 83.6876 28.472 82.7756 27.56C81.8889 26.6227 80.7869 26.154 79.4696 26.154C78.1776 26.154 77.0756 26.6227 76.1636 27.56C75.2769 28.4973 74.8336 29.7767 74.8336 31.398C74.8336 33.0193 75.2769 34.2987 76.1636 35.236C77.0756 36.1733 78.1776 36.642 79.4696 36.642C80.7616 36.642 81.8636 36.1733 82.7756 35.236C83.6876 34.2733 84.1436 32.9813 84.1436 31.36ZM100.663 23.798C101.296 22.81 102.17 22.012 103.285 21.404C104.399 20.796 105.704 20.492 107.199 20.492C108.947 20.492 110.53 20.9353 111.949 21.822C113.367 22.7087 114.482 23.9753 115.293 25.622C116.129 27.2687 116.547 29.1813 116.547 31.36C116.547 33.5387 116.129 35.464 115.293 37.136C114.482 38.7827 113.367 40.062 111.949 40.974C110.53 41.8607 108.947 42.304 107.199 42.304C105.729 42.304 104.425 42 103.285 41.392C102.17 40.784 101.296 39.9987 100.663 39.036V52.108H94.1646V20.796H100.663V23.798ZM109.935 31.36C109.935 29.7387 109.479 28.472 108.567 27.56C107.68 26.6227 106.578 26.154 105.261 26.154C103.969 26.154 102.867 26.6227 101.955 27.56C101.068 28.4973 100.625 29.7767 100.625 31.398C100.625 33.0193 101.068 34.2987 101.955 35.236C102.867 36.1733 103.969 36.642 105.261 36.642C106.553 36.642 107.655 36.1733 108.567 35.236C109.479 34.2733 109.935 32.9813 109.935 31.36ZM126.454 24.33C127.214 23.1647 128.164 22.2527 129.304 21.594C130.444 20.91 131.71 20.568 133.104 20.568V27.446H131.318C129.696 27.446 128.48 27.8007 127.67 28.51C126.859 29.194 126.454 30.41 126.454 32.158V42H119.956V20.796H126.454V24.33ZM156.198 31.056C156.198 31.664 156.16 32.2973 156.084 32.956H141.378C141.479 34.2733 141.897 35.2867 142.632 35.996C143.392 36.68 144.316 37.022 145.406 37.022C147.027 37.022 148.154 36.338 148.788 34.97H155.704C155.349 36.3633 154.703 37.6173 153.766 38.732C152.854 39.8467 151.701 40.7207 150.308 41.354C148.914 41.9873 147.356 42.304 145.634 42.304C143.556 42.304 141.707 41.8607 140.086 40.974C138.464 40.0873 137.198 38.8207 136.286 37.174C135.374 35.5273 134.918 33.602 134.918 31.398C134.918 29.194 135.361 27.2687 136.248 25.622C137.16 23.9753 138.426 22.7087 140.048 21.822C141.669 20.9353 143.531 20.492 145.634 20.492C147.686 20.492 149.51 20.9227 151.106 21.784C152.702 22.6453 153.943 23.874 154.83 25.47C155.742 27.066 156.198 28.928 156.198 31.056ZM149.548 29.346C149.548 28.2313 149.168 27.3447 148.408 26.686C147.648 26.0273 146.698 25.698 145.558 25.698C144.468 25.698 143.544 26.0147 142.784 26.648C142.049 27.2813 141.593 28.1807 141.416 29.346H149.548ZM172.546 20.568C175.028 20.568 177.004 21.3787 178.474 23C179.968 24.596 180.716 26.8 180.716 29.612V42H174.256V30.486C174.256 29.0673 173.888 27.9653 173.154 27.18C172.419 26.3947 171.431 26.002 170.19 26.002C168.948 26.002 167.96 26.3947 167.226 27.18C166.491 27.9653 166.124 29.0673 166.124 30.486V42H159.626V20.796H166.124V23.608C166.782 22.6707 167.669 21.936 168.784 21.404C169.898 20.8467 171.152 20.568 172.546 20.568ZM183.939 31.36C183.939 29.1813 184.344 27.2687 185.155 25.622C185.991 23.9753 187.118 22.7087 188.537 21.822C189.956 20.9353 191.539 20.492 193.287 20.492C194.68 20.492 195.947 20.7833 197.087 21.366C198.252 21.9487 199.164 22.734 199.823 23.722V13.88H206.321V42H199.823V38.96C199.215 39.9733 198.341 40.784 197.201 41.392C196.086 42 194.782 42.304 193.287 42.304C191.539 42.304 189.956 41.8607 188.537 40.974C187.118 40.062 185.991 38.7827 185.155 37.136C184.344 35.464 183.939 33.5387 183.939 31.36ZM199.823 31.398C199.823 29.7767 199.367 28.4973 198.455 27.56C197.568 26.6227 196.479 26.154 195.187 26.154C193.895 26.154 192.793 26.6227 191.881 27.56C190.994 28.472 190.551 29.7387 190.551 31.36C190.551 32.9813 190.994 34.2733 191.881 35.236C192.793 36.1733 193.895 36.642 195.187 36.642C196.479 36.642 197.568 36.1733 198.455 35.236C199.367 34.2987 199.823 33.0193 199.823 31.398ZM209.73 31.36C209.73 29.1813 210.135 27.2687 210.946 25.622C211.782 23.9753 212.909 22.7087 214.328 21.822C215.747 20.9353 217.33 20.492 219.078 20.492C220.471 20.492 221.738 20.7833 222.878 21.366C224.043 21.9487 224.955 22.734 225.614 23.722V13.88H232.112V42H225.614V38.96C225.006 39.9733 224.132 40.784 222.992 41.392C221.877 42 220.573 42.304 219.078 42.304C217.33 42.304 215.747 41.8607 214.328 40.974C212.909 40.062 211.782 38.7827 210.946 37.136C210.135 35.464 209.73 33.5387 209.73 31.36ZM225.614 31.398C225.614 29.7767 225.158 28.4973 224.246 27.56C223.359 26.6227 222.27 26.154 220.978 26.154C219.686 26.154 218.584 26.6227 217.672 27.56C216.785 28.472 216.342 29.7387 216.342 31.36C216.342 32.9813 216.785 34.2733 217.672 35.236C218.584 36.1733 219.686 36.642 220.978 36.642C222.27 36.642 223.359 36.1733 224.246 35.236C225.158 34.2987 225.614 33.0193 225.614 31.398ZM258.473 20.796L245.173 52.07H238.181L243.045 41.278L234.419 20.796H241.677L246.579 34.058L251.443 20.796H258.473Z" fill="white"/>
<g clip-path="url(#clip0)">
<path d="M22.1667 13H3.16667C1.425 13 0 14.425 0 16.1667V41.5C0 43.2417 1.425 44.6667 3.16667 44.6667H22.1667C23.9083 44.6667 25.3333 43.2417 25.3333 41.5V16.1667C25.3333 14.425 23.9083 13 22.1667 13ZM3.16667 16.1667H11.0833V28.8333L7.125 26.4583L3.16667 28.8333V16.1667Z" fill="white"/>
</g>
<defs>
<clipPath id="clip0">
<rect width="38" height="38" fill="white" transform="translate(0 10)"/>
</clipPath>
</defs>
</svg>
