<svg width="1440" height="1024" viewBox="0 0 1440 1024" fill="none" xmlns="http://www.w3.org/2000/svg">
<path d="M0 646L60 620.5C120 595 240 544 360 547.3C480 550.7 600 608.3 720 606.2C840 604 960 542 1080 535.2C1200 528.3 1320 576.7 1380 600.8L1440 625V0H1380C1320 0 1200 0 1080 0C960 0 840 0 720 0C600 0 480 0 360 0C240 0 120 0 60 0H0V646Z" fill="#45369F"/>
<path d="M0 468L60 477.8C120 487.7 240 507.3 360 501.7C480 496 600 465 720 440.7C840 416.3 960 398.7 1080 388.7C1200 378.7 1320 376.3 1380 375.2L1440 374V0H1380C1320 0 1200 0 1080 0C960 0 840 0 720 0C600 0 480 0 360 0C240 0 120 0 60 0H0V468Z" fill="#322A88"/>
<path d="M0 363L60 366.7C120 370.3 240 377.7 360 361.8C480 346 600 307 720 304.2C840 301.3 960 334.7 1080 344.8C1200 355 1320 342 1380 335.5L1440 329V0H1380C1320 0 1200 0 1080 0C960 0 840 0 720 0C600 0 480 0 360 0C240 0 120 0 60 0H0V363Z" fill="#201E70"/>
<path d="M0 224L60 207.7C120 191.3 240 158.7 360 143.3C480 128 600 130 720 147.8C840 165.7 960 199.3 1080 211.3C1200 223.3 1320 213.7 1380 208.8L1440 204V0H1380C1320 0 1200 0 1080 0C960 0 840 0 720 0C600 0 480 0 360 0C240 0 120 0 60 0H0V224Z" fill="#0B135A"/>
</svg>
