<svg width="588" height="426" viewBox="0 0 588 426" fill="none" xmlns="http://www.w3.org/2000/svg">
<g clip-path="url(#clip0_424_991)">
<path d="M374.703 319.359V422.05H117.296C87.9679 422.05 64.1063 399.016 64.1063 370.705C64.1063 342.393 87.9679 319.359 117.296 319.359H374.703Z" fill="#F2F2F2"/>
<path d="M381.026 421.26C381.025 422.308 380.609 423.312 379.868 424.053C379.127 424.793 378.122 425.21 377.074 425.21H112.711C98.3531 425.21 84.5832 419.509 74.4305 409.362C64.2778 399.214 58.5741 385.451 58.5741 371.1C58.5741 356.749 64.2778 342.986 74.4305 332.838C84.5832 322.69 98.3531 316.989 112.711 316.989H377.074C378.122 316.989 379.127 317.405 379.868 318.146C380.609 318.887 381.026 319.891 381.026 320.939C381.026 321.986 380.609 322.991 379.868 323.732C379.127 324.472 378.122 324.889 377.074 324.889H112.711C100.449 324.889 88.6894 329.757 80.0189 338.424C71.3484 347.09 66.4773 358.844 66.4773 371.1C66.4773 383.356 71.3484 395.11 80.0189 403.776C88.6894 412.442 100.449 417.311 112.711 417.311H377.074C378.122 417.311 379.127 417.727 379.868 418.468C380.609 419.209 381.025 420.213 381.026 421.26Z" fill="#270E8A"/>
<path d="M374.703 343.057H98.0902C97.8806 343.057 97.6796 342.974 97.5314 342.826C97.3832 342.677 97.2999 342.476 97.2999 342.267C97.2999 342.057 97.3832 341.857 97.5314 341.708C97.6796 341.56 97.8806 341.477 98.0902 341.477H374.703C374.913 341.477 375.114 341.56 375.262 341.708C375.41 341.857 375.493 342.057 375.493 342.267C375.493 342.476 375.41 342.677 375.262 342.826C375.114 342.974 374.913 343.057 374.703 343.057Z" fill="#CCCCCC"/>
<path d="M374.703 362.015H98.0902C97.8806 362.015 97.6796 361.932 97.5314 361.784C97.3832 361.636 97.2999 361.435 97.2999 361.225C97.2999 361.016 97.3832 360.815 97.5314 360.667C97.6796 360.519 97.8806 360.436 98.0902 360.436H374.703C374.913 360.436 375.114 360.519 375.262 360.667C375.41 360.815 375.493 361.016 375.493 361.225C375.493 361.435 375.41 361.636 375.262 361.784C375.114 361.932 374.913 362.015 374.703 362.015Z" fill="#CCCCCC"/>
<path d="M374.703 380.974H98.0902C97.8806 380.974 97.6796 380.891 97.5314 380.743C97.3832 380.594 97.2999 380.393 97.2999 380.184C97.2999 379.974 97.3832 379.774 97.5314 379.625C97.6796 379.477 97.8806 379.394 98.0902 379.394H374.703C374.913 379.394 375.114 379.477 375.262 379.625C375.41 379.774 375.493 379.974 375.493 380.184C375.493 380.393 375.41 380.594 375.262 380.743C375.114 380.891 374.913 380.974 374.703 380.974Z" fill="#CCCCCC"/>
<path d="M374.703 399.932H98.0902C97.8806 399.932 97.6796 399.849 97.5314 399.701C97.3832 399.553 97.2999 399.352 97.2999 399.142C97.2999 398.933 97.3832 398.732 97.5314 398.584C97.6796 398.436 97.8806 398.352 98.0902 398.352H374.703C374.913 398.352 375.114 398.436 375.262 398.584C375.41 398.732 375.493 398.933 375.493 399.142C375.493 399.352 375.41 399.553 375.262 399.701C375.114 399.849 374.913 399.932 374.703 399.932Z" fill="#CCCCCC"/>
<path d="M573.641 338.689L509.179 418.653L308.741 257.23C285.904 238.838 281.782 205.938 299.554 183.892C317.326 161.847 350.366 158.874 373.203 177.266L573.641 338.689Z" fill="#F2F2F2"/>
<path d="M514.598 422.003C513.94 422.818 512.985 423.339 511.943 423.451C510.901 423.563 509.858 423.257 509.041 422.6L303.187 256.815C292.007 247.811 284.863 234.737 283.327 220.468C281.792 206.199 285.99 191.905 294.998 180.73C304.007 169.556 317.088 162.415 331.364 160.88C345.639 159.345 359.94 163.542 371.121 172.546L576.975 338.331C577.379 338.656 577.716 339.058 577.965 339.513C578.214 339.969 578.371 340.468 578.426 340.984C578.482 341.5 578.435 342.022 578.289 342.52C578.143 343.018 577.9 343.482 577.574 343.886C577.249 344.29 576.846 344.626 576.391 344.875C575.935 345.123 575.435 345.28 574.919 345.335C574.403 345.39 573.881 345.343 573.383 345.197C572.885 345.051 572.42 344.808 572.016 344.482L366.162 178.697C361.435 174.886 356.002 172.044 350.176 170.333C344.349 168.621 338.242 168.074 332.204 168.722C326.165 169.37 320.314 171.201 314.984 174.11C309.653 177.019 304.949 180.949 301.138 185.675C297.328 190.402 294.487 195.833 292.777 201.657C291.067 207.481 290.521 213.586 291.172 219.621C291.823 225.656 293.657 231.504 296.569 236.83C299.482 242.157 303.415 246.858 308.146 250.664L514 416.449C514.816 417.107 515.337 418.061 515.449 419.102C515.561 420.144 515.255 421.187 514.598 422.003Z" fill="#CCCCCC"/>
<path d="M558.765 357.143L343.372 183.675C343.291 183.61 343.224 183.53 343.174 183.439C343.125 183.348 343.093 183.248 343.082 183.145C343.071 183.042 343.08 182.937 343.11 182.838C343.139 182.738 343.187 182.645 343.253 182.565C343.318 182.484 343.398 182.417 343.489 182.367C343.58 182.317 343.68 182.286 343.783 182.275C343.887 182.264 343.991 182.273 344.091 182.302C344.19 182.331 344.283 182.38 344.364 182.445L559.757 355.912C559.838 355.977 559.905 356.058 559.955 356.149C560.005 356.24 560.036 356.34 560.047 356.443C560.059 356.546 560.049 356.651 560.02 356.75C559.991 356.85 559.942 356.943 559.877 357.024C559.812 357.105 559.732 357.172 559.64 357.222C559.549 357.271 559.449 357.303 559.346 357.314C559.243 357.325 559.138 357.315 559.038 357.286C558.939 357.256 558.846 357.208 558.765 357.143Z" fill="#CCCCCC"/>
<path d="M546.864 371.905L331.471 198.438C331.308 198.306 331.204 198.115 331.182 197.907C331.16 197.699 331.221 197.491 331.353 197.328C331.484 197.165 331.675 197.061 331.883 197.038C332.091 197.016 332.3 197.077 332.463 197.208L547.856 370.675C547.937 370.74 548.004 370.82 548.054 370.911C548.104 371.002 548.136 371.102 548.147 371.206C548.158 371.309 548.149 371.413 548.119 371.513C548.09 371.613 548.042 371.705 547.976 371.786C547.911 371.867 547.831 371.934 547.74 371.984C547.648 372.034 547.548 372.065 547.445 372.076C547.342 372.087 547.237 372.078 547.138 372.048C547.038 372.019 546.945 371.97 546.864 371.905Z" fill="#CCCCCC"/>
<path d="M534.964 386.668L319.571 213.2C319.407 213.069 319.303 212.878 319.281 212.67C319.258 212.462 319.32 212.253 319.451 212.09C319.583 211.927 319.774 211.822 319.982 211.8C320.19 211.778 320.399 211.839 320.562 211.97L535.955 385.438C536.036 385.503 536.103 385.583 536.153 385.674C536.203 385.765 536.234 385.865 536.245 385.968C536.256 386.071 536.247 386.176 536.218 386.275C536.189 386.375 536.14 386.467 536.075 386.548C536.01 386.629 535.929 386.696 535.838 386.746C535.747 386.796 535.647 386.827 535.544 386.838C535.441 386.849 535.336 386.84 535.237 386.811C535.137 386.781 535.044 386.733 534.964 386.668Z" fill="#CCCCCC"/>
<path d="M523.063 401.43L307.67 227.963C307.589 227.898 307.522 227.817 307.472 227.726C307.422 227.635 307.391 227.535 307.38 227.432C307.369 227.329 307.378 227.225 307.407 227.125C307.437 227.026 307.485 226.933 307.55 226.852C307.615 226.771 307.696 226.704 307.787 226.655C307.878 226.605 307.978 226.573 308.081 226.562C308.184 226.551 308.289 226.561 308.388 226.59C308.488 226.619 308.581 226.668 308.662 226.733L524.055 400.2C524.136 400.265 524.203 400.345 524.253 400.436C524.303 400.527 524.334 400.627 524.345 400.731C524.356 400.834 524.347 400.938 524.318 401.038C524.289 401.138 524.24 401.23 524.175 401.311C524.11 401.392 524.029 401.459 523.938 401.509C523.847 401.559 523.747 401.59 523.644 401.601C523.54 401.612 523.436 401.603 523.336 401.573C523.237 401.544 523.144 401.495 523.063 401.43Z" fill="#CCCCCC"/>
<path d="M587.21 426H0.790323C0.580716 426 0.379694 425.917 0.23148 425.769C0.0832653 425.621 0 425.42 0 425.21C0 425.001 0.0832653 424.8 0.23148 424.652C0.379694 424.503 0.580716 424.42 0.790323 424.42H587.21C587.419 424.42 587.62 424.503 587.768 424.652C587.917 424.8 588 425.001 588 425.21C588 425.42 587.917 425.621 587.768 425.769C587.62 425.917 587.419 426 587.21 426Z" fill="#CCCCCC"/>
<path d="M267.193 308.565L258.158 308.565L253.861 273.732L267.196 273.733L267.193 308.565Z" fill="#FFB8B8"/>
<path d="M251.704 305.984H269.129V316.95H240.733C240.733 315.51 241.016 314.084 241.568 312.754C242.119 311.423 242.927 310.214 243.946 309.196C244.965 308.178 246.174 307.37 247.505 306.819C248.836 306.268 250.263 305.984 251.704 305.984Z" fill="#2F2E41"/>
<path d="M174.887 308.565L165.852 308.565L161.555 273.732L174.89 273.733L174.887 308.565Z" fill="#FFB8B8"/>
<path d="M159.398 305.984H176.823V316.95H148.427C148.427 315.51 148.711 314.084 149.262 312.754C149.814 311.423 150.622 310.214 151.641 309.196C152.659 308.178 153.869 307.37 155.2 306.819C156.531 306.268 157.958 305.984 159.398 305.984Z" fill="#2F2E41"/>
<path d="M205.066 50.1868V46.2371C205.066 39.4806 207.751 33.0008 212.531 28.2233C217.311 23.4457 223.794 20.7617 230.554 20.7617C237.313 20.7617 243.796 23.4457 248.576 28.2233C253.356 33.0008 256.042 39.4806 256.042 46.2371V50.1868C256.042 55.0577 254.106 59.7292 250.66 63.1735C247.214 66.6178 242.54 68.5527 237.667 68.5527H223.441C221.028 68.5527 218.638 68.0777 216.409 67.1547C214.18 66.2318 212.154 64.8789 210.448 63.1735C208.741 61.468 207.388 59.4434 206.464 57.2151C205.541 54.9869 205.066 52.5986 205.066 50.1868Z" fill="#2F2E41"/>
<path d="M230.554 69.9118C241.274 69.9118 249.965 61.2254 249.965 50.5102C249.965 39.795 241.274 31.1086 230.554 31.1086C219.833 31.1086 211.142 39.795 211.142 50.5102C211.142 61.2254 219.833 69.9118 230.554 69.9118Z" fill="#FFB8B8"/>
<path d="M124.969 117.191C125.757 116.448 126.698 115.886 127.727 115.545C128.755 115.205 129.846 115.094 130.922 115.22C131.998 115.346 133.033 115.707 133.955 116.276C134.876 116.846 135.662 117.61 136.255 118.516L152.895 115.37L157.275 125.011L133.713 129.124C132.125 130.02 130.263 130.303 128.48 129.919C126.697 129.535 125.116 128.51 124.039 127.039C122.961 125.568 122.46 123.753 122.632 121.938C122.803 120.123 123.635 118.434 124.969 117.191Z" fill="#FFB8B8"/>
<path d="M215.638 82.46L188.351 100.427L142.308 115.122C141.698 115.318 141.175 115.719 140.827 116.258C140.48 116.796 140.329 117.438 140.402 118.075L141.407 126.722C141.451 127.105 141.575 127.474 141.771 127.806C141.967 128.138 142.229 128.425 142.543 128.65C142.856 128.874 143.213 129.031 143.59 129.109C143.968 129.188 144.357 129.187 144.734 129.106L188.067 119.822C190.164 119.376 192.147 118.503 193.893 117.259L224.548 95.4591C225.659 94.6645 226.546 93.596 227.122 92.3574C227.698 91.1189 227.943 89.7525 227.835 88.3911C227.722 87.0279 227.257 85.7174 226.484 84.5885C225.711 83.4596 224.657 82.5513 223.427 81.9528C222.196 81.3544 220.831 81.0864 219.465 81.1754C218.099 81.2643 216.78 81.707 215.638 82.46Z" fill="#CCCCCC"/>
<path d="M258.319 298.681C257.626 298.681 256.947 298.479 256.367 298.1C255.786 297.721 255.328 297.182 255.049 296.547L213.629 194.25C213.532 194.028 213.37 193.841 213.163 193.714C212.957 193.587 212.717 193.527 212.475 193.54C212.233 193.554 212.002 193.641 211.811 193.79C211.62 193.94 211.48 194.144 211.409 194.375L177.616 293.965C177.473 294.428 177.237 294.858 176.923 295.227C176.608 295.595 176.221 295.896 175.785 296.11C175.35 296.324 174.875 296.447 174.391 296.47C173.906 296.494 173.422 296.419 172.968 296.249L161.636 292.001C161.021 291.773 160.481 291.378 160.077 290.862C159.673 290.345 159.42 289.726 159.346 289.075C154.248 244.686 198.704 132.644 199.154 131.518L199.279 131.206L239.804 140.166L239.888 140.258C256.057 157.888 269.346 269.082 271.846 291.193C271.94 291.992 271.758 292.799 271.331 293.48C270.904 294.162 270.258 294.678 269.498 294.943L259.496 298.479C259.118 298.612 258.72 298.681 258.319 298.681Z" fill="#2F2E41"/>
<path d="M223.402 143.772C213.584 143.772 202.637 141.816 199.268 133.74L199.19 133.554L199.295 133.382C201.955 129.021 205.47 121.58 203.58 120.184C199.859 117.433 198.053 112.908 198.213 106.735C198.561 93.3328 207.697 81.434 220.947 77.126C224.646 75.943 228.41 74.9744 232.22 74.2251C234.997 73.6649 237.865 73.7265 240.616 74.4056C243.367 75.0846 245.933 76.3642 248.131 78.1524C250.356 79.9524 252.155 82.2226 253.398 84.8C254.641 87.3773 255.297 90.1979 255.32 93.0589C255.459 107.381 253.253 127.329 241.954 141.024C241.424 141.659 240.687 142.088 239.873 142.233C234.437 143.216 228.926 143.731 223.402 143.772Z" fill="#CCCCCC"/>
<path d="M219.75 143.236C220.284 141.32 221.554 139.693 223.282 138.707C225.01 137.721 227.058 137.457 228.98 137.972C229.372 138.081 229.755 138.223 230.124 138.395L242.759 126.903L251.545 132.82L233.477 148.801C232.661 150.271 231.377 151.426 229.828 152.083C228.28 152.739 226.556 152.859 224.931 152.424C223.985 152.165 223.099 151.721 222.326 151.118C221.552 150.515 220.905 149.764 220.423 148.91C219.942 148.056 219.634 147.114 219.518 146.14C219.403 145.167 219.482 144.179 219.75 143.236Z" fill="#FFB8B8"/>
<path d="M240.757 143.382C239.938 143.382 239.143 143.099 238.509 142.58L233.526 138.51C233.111 138.171 232.778 137.742 232.551 137.256C232.325 136.77 232.212 136.239 232.221 135.703C232.229 135.167 232.358 134.64 232.599 134.161C232.84 133.682 233.187 133.264 233.612 132.937L254.51 116.918C254.757 116.727 254.92 116.446 254.962 116.136C255.004 115.827 254.922 115.513 254.734 115.263L241.835 98.2192C240.337 96.2456 239.585 93.8058 239.714 91.3315C239.842 88.8572 240.842 86.5082 242.537 84.7001C244.322 82.7733 246.766 81.5876 249.385 81.3783C252.003 81.169 254.605 81.9512 256.674 83.5699L256.755 83.656L270.224 102.932C271.681 104.074 272.853 105.536 273.651 107.205C274.448 108.875 274.849 110.706 274.821 112.555C274.794 114.405 274.339 116.223 273.492 117.868C272.645 119.513 271.429 120.94 269.94 122.037L242.874 142.685C242.262 143.138 241.519 143.382 240.757 143.382Z" fill="#CCCCCC"/>
<path d="M213.36 45.0522V35.426L230.554 27.9216L246.948 35.426V45.0522C246.948 45.4712 246.782 45.8731 246.485 46.1694C246.189 46.4657 245.787 46.6321 245.368 46.6321H214.94C214.521 46.6321 214.119 46.4657 213.823 46.1694C213.526 45.8731 213.36 45.4712 213.36 45.0522Z" fill="#2F2E41"/>
<path d="M229.764 22.0388C227.236 13.9511 232.546 4.68216 240.395 1.48082C248.244 -1.72052 257.634 0.517313 264.257 5.80641C270.881 11.0955 274.99 19.0176 277.167 27.2066C279.344 35.3957 279.758 43.9349 280.16 52.3987C289.803 54.1692 296.363 65.6018 293.023 74.8157C289.682 84.0295 277.317 88.607 268.777 83.7911C260.238 78.9753 257.764 66.0298 263.928 58.4076C266.844 54.801 268.473 50.325 268.557 45.6886C268.641 41.0521 267.174 36.5202 264.39 32.8107C261.606 29.1012 257.664 26.426 253.187 25.209C248.71 23.992 243.955 24.3026 239.674 26.0917C234.922 28.0783 228.958 22.9167 229.764 22.0388Z" fill="#2F2E41"/>
<path d="M121.405 79.8487C109.859 79.7729 98.4569 77.277 87.9361 72.5221C87.3098 72.2431 86.7782 71.7881 86.4061 71.2125C86.034 70.6369 85.8374 69.9655 85.8402 69.2802V40.5125C85.8413 39.57 86.2163 38.6665 86.8831 38.0001C87.5498 37.3337 88.4538 36.9588 89.3967 36.9578H153.413C154.356 36.9588 155.26 37.3337 155.926 38.0001C156.593 38.6665 156.968 39.57 156.969 40.5125V69.2803C156.972 69.9656 156.776 70.6369 156.403 71.2125C156.031 71.7881 155.5 72.2432 154.873 72.5221C144.353 77.277 132.951 79.7729 121.405 79.8487Z" fill="#270E8A"/>
<path d="M121.396 56.5433C120.921 56.5437 120.451 56.4493 120.014 56.2656L69.25 34.8587C68.5954 34.5827 68.0385 34.117 67.6511 33.5217C67.2637 32.9263 67.0636 32.2287 67.0766 31.5186C67.0897 30.8086 67.3152 30.1187 67.7241 29.538C68.1331 28.9573 68.7067 28.5123 69.371 28.2604L120.136 9.0115C120.953 8.70005 121.857 8.70197 122.674 9.0169L172.758 28.2657C173.419 28.5196 173.988 28.9648 174.394 29.5441C174.8 30.1235 175.024 30.8107 175.037 31.518C175.05 32.2252 174.852 32.9203 174.468 33.5142C174.083 34.1082 173.53 34.574 172.88 34.8521L122.795 56.2587C122.352 56.4469 121.877 56.5437 121.396 56.5433Z" fill="#270E8A"/>
<path d="M91.7676 74.4797C94.3865 74.4797 96.5096 72.3577 96.5096 69.7401C96.5096 67.1225 94.3865 65.0005 91.7676 65.0005C89.1487 65.0005 87.0257 67.1225 87.0257 69.7401C87.0257 72.3577 89.1487 74.4797 91.7676 74.4797Z" fill="#3F3D56"/>
<path opacity="0.2" d="M173.053 31.8137L122.968 53.2202C122.577 53.3871 122.157 53.4736 121.732 53.4747C121.308 53.4757 120.887 53.3912 120.496 53.2262L69.732 31.8199C69.0945 31.5575 68.5626 31.0903 68.2204 30.492C67.9966 30.8799 67.8579 31.3111 67.8135 31.7567C67.7691 32.2023 67.8201 32.6523 67.9631 33.0768C68.106 33.5012 68.3377 33.8904 68.6427 34.2185C68.9477 34.5465 69.319 34.806 69.732 34.9797L120.496 56.3859C120.887 56.5509 121.308 56.6354 121.732 56.6344C122.157 56.6334 122.577 56.5468 122.968 56.38L173.053 34.9734C173.464 34.7982 173.833 34.5379 174.136 34.2097C174.438 33.8815 174.668 33.4928 174.81 33.0692C174.951 32.6457 175.001 32.197 174.956 31.7527C174.912 31.3085 174.773 30.8788 174.55 30.4919C174.21 31.0854 173.684 31.5501 173.053 31.8137Z" fill="black"/>
<path d="M92.1661 69.7215C92.3757 69.7215 92.5767 69.6383 92.7249 69.4901C92.8731 69.342 92.9564 69.141 92.9564 68.9315V42.4992L119.022 33.0081C119.232 33.0112 119.434 32.931 119.584 32.785C119.735 32.6391 119.821 32.4394 119.824 32.2299C119.827 32.0204 119.747 31.8183 119.601 31.6679C119.455 31.5176 119.255 31.4313 119.046 31.4282L92.9799 40.9194C92.7702 40.9146 92.5616 40.9523 92.3669 41.0304C92.1722 41.1085 91.9954 41.2253 91.8471 41.3737C91.6973 41.5204 91.5784 41.6955 91.4974 41.8888C91.4165 42.0821 91.3751 42.2897 91.3757 42.4992V68.9315C91.3758 69.141 91.459 69.3419 91.6072 69.4901C91.7554 69.6382 91.9565 69.7215 92.1661 69.7215Z" fill="#3F3D56"/>
</g>
<defs>
<clipPath id="clip0_424_991">
<rect width="588" height="426" fill="white"/>
</clipPath>
</defs>
</svg>
